{
  "accessors": [
    {
      "bufferView": 2,
      "componentType": 5126,
      "count": 42,
      "max": [
        0.6573920249938965,
        0.5009111762046814,
        0.1475353240966797
      ],
      "min": [
        -0.5198073983192444,
        -0.5,
        -0.4111765921115875
      ],
      "type": "VEC3"
    },
    {
      "bufferView": 2,
      "byteOffset": 504,
      "componentType": 5126,
      "count": 42,
      "max": [
        0.893929660320282,
        0.7086998820304871,
        1.0
      ],
      "min": [
        -0.9815013408660889,
        -0.5141138434410095,
        -0.9336968660354614
      ],
      "type": "VEC3"
    },
    {
      "bufferView": 1,
      "componentType": 5126,
      "count": 42,
      "max": [
        1.0,
        1.0
      ],
      "min": [
        0.0,
        0.0
      ],
      "type": "VEC2"
    },
    {
      "bufferView": 0,
      "componentType": 5125,
      "count": 66,
      "type": "SCALAR"
    },
    {
      "bufferView": 2,
      "byteOffset": 1008,
      "componentType": 5126,
      "count": 16,
      "max": [
        0.5555031299591064,
        0.5,
        0.32329848408699036
      ],
      "min": [
        -0.5084306001663208,
        -0.5336365103721619,
        -0.48716801404953003
      ],
      "type": "VEC3"
    },
    {
      "bufferView": 2,
      "byteOffset": 1200,
      "componentType": 5126,
      "count": 16,
      "max": [
        0.0,
        0.01579444296658039,
        1.0
      ],
      "min": [
        -0.8842445015907288,
        -0.13727211952209473,
        -0.4660385847091675
      ],
      "type": "VEC3"
    },
    {
      "bufferView": 1,
      "byteOffset": 336,
      "componentType": 5126,
      "count": 16,
      "max": [
        1.0,
        1.0
      ],
      "min": [
        0.0,
        0.0
      ],
      "type": "VEC2"
    },
    {
      "bufferView": 0,
      "byteOffset": 264,
      "componentType": 5125,
      "count": 24,
      "type": "SCALAR"
    },
    {
      "bufferView": 2,
      "byteOffset": 1392,
      "componentType": 5126,
      "count": 12,
      "max": [
        0.5084306001663208,
        0.6949564814567566,
        0.42541980743408203
      ],
      "min": [
        -0.5084306001663208,
        -0.5129120945930481,
        -0.5188033580780029
      ],
      "type": "VEC3"
    },
    {
      "bufferView": 2,
      "byteOffset": 1536,
      "componentType": 5126,
      "count": 12,
      "max": [
        0.6995666027069092,
        0.13468094170093536,
        1.0
      ],
      "min": [
        -0.9285663366317749,
        0.0,
        0.371166467666626
      ],
      "type": "VEC3"
    },
    {
      "bufferView": 1,
      "byteOffset": 464,
      "componentType": 5126,
      "count": 12,
      "max": [
        1.0,
        1.0
      ],
      "min": [
        0.0,
        0.0
      ],
      "type": "VEC2"
    },
    {
      "bufferView": 0,
      "byteOffset": 360,
      "componentType": 5125,
      "count": 18,
      "type": "SCALAR"
    },
    {
      "bufferView": 2,
      "byteOffset": 1680,
      "componentType": 5126,
      "count": 36,
      "max": [
        0.4303688406944275,
        0.5,
        0.35517945885658264
      ],
      "min": [
        -0.4101324677467346,
        -0.5,
        -0.3595239520072937
      ],
      "type": "VEC3"
    },
    {
      "bufferView": 2,
      "byteOffset": 2112,
      "componentType": 5126,
      "count": 36,
      "max": [
        0.998948872089386,
        0.20797841250896454,
        1.0
      ],
      "min": [
        -0.6851183176040649,
        -0.8270679712295532,
        -0.8028339743614197
      ],
      "type": "VEC3"
    },
    {
      "bufferView": 1,
      "byteOffset": 560,
      "componentType": 5126,
      "count": 36,
      "max": [
        1.0,
        1.0
      ],
      "min": [
        0.0,
        0.0
      ],
      "type": "VEC2"
    },
    {
      "bufferView": 0,
      "byteOffset": 432,
      "componentType": 5125,
      "count": 54,
      "type": "SCALAR"
    },
    {
      "bufferView": 2,
      "byteOffset": 2544,
      "componentType": 5126,
      "count": 46,
      "max": [
        1.493312120437622,
        0.5,
        0.7902283072471619
      ],
      "min": [
        -1.4856798648834229,
        -0.5754292607307434,
        -0.8505922555923462
      ],
      "type": "VEC3"
    },
    {
      "bufferView": 2,
      "byteOffset": 3096,
      "componentType": 5126,
      "count": 46,
      "max": [
        0.9531222581863403,
        0.04920409992337227,
        0.9244567155838013
      ],
      "min": [
        -0.9719065427780151,
        -0.8023377656936646,
        -0.999889075756073
      ],
      "type": "VEC3"
    },
    {
      "bufferView": 1,
      "byteOffset": 848,
      "componentType": 5126,
      "count": 46,
      "max": [
        1.0,
        1.0837645530700684
      ],
      "min": [
        0.0,
        0.0
      ],
      "type": "VEC2"
    },
    {
      "bufferView": 0,
      "byteOffset": 648,
      "componentType": 5125,
      "count": 99,
      "type": "SCALAR"
    },
    {
      "bufferView": 2,
      "byteOffset": 3648,
      "componentType": 5126,
      "count": 4,
      "max": [
        7.863999366760254,
        0.5,
        0.07128921896219254
      ],
      "min": [
        -7.8639984130859375,
        -0.4999999701976776,
        -0.07128922641277313
      ],
      "type": "VEC3"
    },
    {
      "bufferView": 2,
      "byteOffset": 3696,
      "componentType": 5126,
      "count": 4,
      "max": [
        0.009064892306923866,
        0.0,
        0.9999589323997498
      ],
      "min": [
        0.009064892306923866,
        0.0,
        0.9999589323997498
      ],
      "type": "VEC3"
    },
    {
      "bufferView": 1,
      "byteOffset": 1216,
      "componentType": 5126,
      "count": 4,
      "max": [
        4.432074546813965,
        1.0
      ],
      "min": [
        -3.4320743083953857,
        0.0
      ],
      "type": "VEC2"
    },
    {
      "bufferView": 0,
      "byteOffset": 1044,
      "componentType": 5125,
      "count": 6,
      "type": "SCALAR"
    },
    {
      "bufferView": 2,
      "byteOffset": 3744,
      "componentType": 5126,
      "count": 8,
      "max": [
        7.863999366760254,
        0.5000001788139343,
        12.542076110839844
      ],
      "min": [
        -7.8639984130859375,
        -0.5000009536743164,
        -3.1713876724243164
      ],
      "type": "VEC3"
    },
    {
      "bufferView": 2,
      "byteOffset": 3840,
      "componentType": 5126,
      "count": 8,
      "max": [
        0.009064892306923866,
        0.0,
        0.9999589323997498
      ],
      "min": [
        -0.9990349411964417,
        0.0,
        0.043922942131757736
      ],
      "type": "VEC3"
    },
    {
      "bufferView": 1,
      "byteOffset": 1248,
      "componentType": 5126,
      "count": 8,
      "max": [
        4.432074546813965,
        1.0
      ],
      "min": [
        -3.4320743083953857,
        0.0
      ],
      "type": "VEC2"
    },
    {
      "bufferView": 0,
      "byteOffset": 1068,
      "componentType": 5125,
      "count": 12,
      "type": "SCALAR"
    },
    {
      "bufferView": 2,
      "byteOffset": 3936,
      "componentType": 5126,
      "count": 28,
      "max": [
        1.493312120437622,
        0.5,
        0.7902283072471619
      ],
      "min": [
        -1.4856798648834229,
        -0.5000000596046448,
        -0.8505922555923462
      ],
      "type": "VEC3"
    },
    {
      "bufferView": 2,
      "byteOffset": 4272,
      "componentType": 5126,
      "count": 28,
      "max": [
        0.9531222581863403,
        0.03511984646320343,
        0.9244567155838013
      ],
      "min": [
        -0.9719065427780151,
        -0.28461647033691406,
        -0.999889075756073
      ],
      "type": "VEC3"
    },
    {
      "bufferView": 1,
      "byteOffset": 1312,
      "componentType": 5126,
      "count": 28,
      "max": [
        1.0,
        1.0
      ],
      "min": [
        0.0,
        0.0
      ],
      "type": "VEC2"
    },
    {
      "bufferView": 0,
      "byteOffset": 1116,
      "componentType": 5125,
      "count": 60,
      "type": "SCALAR"
    }
  ],
  "asset": {
    "extras": {
      "author": "EFX (https://sketchfab.com/evan4129)",
      "license": "CC-BY-4.0 (http://creativecommons.org/licenses/by/4.0/)",
      "source": "https://sketchfab.com/3d-models/snow-trees-pack-lowpoly-8927ca8abbfc4871a029323480d1ad05",
      "title": "Snow Trees Pack LOWPOLY"
    },
    "generator": "Sketchfab-16.52.0",
    "version": "2.0"
  },
  "bufferViews": [
    {
      "buffer": 0,
      "byteLength": 1356,
      "name": "floatBufferViews",
      "target": 34963
    },
    {
      "buffer": 0,
      "byteLength": 1536,
      "byteOffset": 1356,
      "byteStride": 8,
      "name": "floatBufferViews",
      "target": 34962
    },
    {
      "buffer": 0,
      "byteLength": 4608,
      "byteOffset": 2892,
      "byteStride": 12,
      "name": "floatBufferViews",
      "target": 34962
    }
  ],
  "buffers": [
    {
      "byteLength": 7500,
      "uri": "scene.bin"
    }
  ],
  "extensionsUsed": [
    "KHR_materials_specular"
  ],
  "images": [
    {
      "uri": "textures/treebaretall_baseColor.png"
    },
    {
      "uri": "textures/deadtreehero_baseColor.png"
    },
    {
      "uri": "textures/deadtreewide_baseColor.png"
    },
    {
      "uri": "textures/tree1_baseColor.png"
    },
    {
      "uri": "textures/snowbush_baseColor.png"
    },
    {
      "uri": "textures/treeline_baseColor.png"
    }
  ],
  "materials": [
    {
      "alphaMode": "BLEND",
      "doubleSided": true,
      "extensions": {
        "KHR_materials_specular": {
          "specularColorFactor": [
            1.0,
            1.0,
            1.0
          ],
          "specularFactor": 0.0
        }
      },
      "name": "treebaretall",
      "pbrMetallicRoughness": {
        "baseColorTexture": {
          "index": 0
        },
        "metallicFactor": 0.0,
        "roughnessFactor": 0.8211145618000169
      }
    },
    {
      "alphaMode": "BLEND",
      "doubleSided": true,
      "name": "deadtreehero",
      "pbrMetallicRoughness": {
        "baseColorTexture": {
          "index": 1
        },
        "metallicFactor": 0.0
      }
    },
    {
      "alphaMode": "BLEND",
      "doubleSided": true,
      "extensions": {
        "KHR_materials_specular": {
          "specularColorFactor": [
            1.0,
            1.0,
            1.0
          ],
          "specularFactor": 0.0
        }
      },
      "name": "deadtreewide",
      "pbrMetallicRoughness": {
        "baseColorTexture": {
          "index": 2
        },
        "metallicFactor": 0.0
      }
    },
    {
      "alphaMode": "BLEND",
      "doubleSided": true,
      "extensions": {
        "KHR_materials_specular": {
          "specularColorFactor": [
            1.0,
            1.0,
            1.0
          ],
          "specularFactor": 0.0
        }
      },
      "name": "tree1",
      "pbrMetallicRoughness": {
        "baseColorTexture": {
          "index": 3
        },
        "metallicFactor": 0.0
      }
    },
    {
      "alphaMode": "BLEND",
      "doubleSided": true,
      "name": "snowbush",
      "pbrMetallicRoughness": {
        "baseColorTexture": {
          "index": 4
        },
        "metallicFactor": 0.0
      }
    },
    {
      "doubleSided": true,
      "extensions": {
        "KHR_materials_specular": {
          "specularColorFactor": [
            1.0,
            1.0,
            1.0
          ],
          "specularFactor": 0.0
        }
      },
      "name": "treeline",
      "pbrMetallicRoughness": {
        "baseColorTexture": {
          "index": 5
        },
        "metallicFactor": 0.0
      }
    }
  ],
  "meshes": [
    {
      "name": "TreeBareTall_treebaretall_0",
      "primitives": [
        {
          "attributes": {
            "NORMAL": 1,
            "POSITION": 0,
            "TEXCOORD_0": 2
          },
          "indices": 3,
          "material": 0,
          "mode": 4
        }
      ]
    },
    {
      "name": "deadtreehero_deadtreehero_0",
      "primitives": [
        {
          "attributes": {
            "NORMAL": 5,
            "POSITION": 4,
            "TEXCOORD_0": 6
          },
          "indices": 7,
          "material": 1,
          "mode": 4
        }
      ]
    },
    {
      "name": "deadtreewide_deadtreewide_0",
      "primitives": [
        {
          "attributes": {
            "NORMAL": 9,
            "POSITION": 8,
            "TEXCOORD_0": 10
          },
          "indices": 11,
          "material": 2,
          "mode": 4
        }
      ]
    },
    {
      "name": "snowtree_tree1_0",
      "primitives": [
        {
          "attributes": {
            "NORMAL": 13,
            "POSITION": 12,
            "TEXCOORD_0": 14
          },
          "indices": 15,
          "material": 3,
          "mode": 4
        }
      ]
    },
    {
      "name": "snowbush1_snowbush_0",
      "primitives": [
        {
          "attributes": {
            "NORMAL": 17,
            "POSITION": 16,
            "TEXCOORD_0": 18
          },
          "indices": 19,
          "material": 4,
          "mode": 4
        }
      ]
    },
    {
      "name": "treeline_treeline_0",
      "primitives": [
        {
          "attributes": {
            "NORMAL": 21,
            "POSITION": 20,
            "TEXCOORD_0": 22
          },
          "indices": 23,
          "material": 5,
          "mode": 4
        }
      ]
    },
    {
      "name": "treeline.001_treeline_0",
      "primitives": [
        {
          "attributes": {
            "NORMAL": 25,
            "POSITION": 24,
            "TEXCOORD_0": 26
          },
          "indices": 27,
          "material": 5,
          "mode": 4
        }
      ]
    },
    {
      "name": "snowbush2_snowbush_0",
      "primitives": [
        {
          "attributes": {
            "NORMAL": 29,
            "POSITION": 28,
            "TEXCOORD_0": 30
          },
          "indices": 31,
          "material": 4,
          "mode": 4
        }
      ]
    }
  ],
  "nodes": [
    {
      "children": [
        1
      ],
      "matrix": [
        1.0,
        0.0,
        0.0,
        0.0,
        0.0,
        2.220446049250313e-16,
        -1.0,
        0.0,
        0.0,
        1.0,
        2.220446049250313e-16,
        0.0,
        0.0,
        0.0,
        0.0,
        1.0
      ],
      "name": "Sketchfab_model"
    },
    {
      "children": [
        2
      ],
      "matrix": [
        0.009999999776482582,
        0.0,
        0.0,
        0.0,
        0.0,
        0.0,
        0.009999999776482582,
        0.0,
        0.0,
        -0.009999999776482582,
        0.0,
        0.0,
        0.0,
        0.0,
        0.0,
        1.0
      ],
      "name": "40989097f7304860a73c50b68bd99a1e.fbx"
    },
    {
      "children": [
        3,
        5,
        7,
        9,
        11,
        13,
        15,
        17
      ],
      "name": "RootNode"
    },
    {
      "children": [
        4
      ],
      "matrix": [
        1071.5595703125,
        0.0,
        0.0,
        0.0,
        0.0,
        1906.4870605468695,
        -0.0001439357718583441,
        0.0,
        0.0,
        0.0001439357718583441,
        1906.4870605468695,
        0.0,
        -604.1201171875,
        865.484619140625,
        1704.435546875,
        1.0
      ],
      "name": "TreeBareTall"
    },
    {
      "mesh": 0,
      "name": "TreeBareTall_treebaretall_0"
    },
    {
      "children": [
        6
      ],
      "matrix": [
        2108.651611328125,
        0.0,
        0.0,
        0.0,
        0.0,
        2108.651611328119,
        -0.00015919877115231655,
        0.0,
        0.0,
        0.00015919877115231655,
        2108.651611328119,
        0.0,
        678.3792724609375,
        969.4547729492188,
        3373.841552734375,
        1.0
      ],
      "name": "deadtreehero"
    },
    {
      "mesh": 1,
      "name": "deadtreehero_deadtreehero_0"
    },
    {
      "children": [
        8
      ],
      "matrix": [
        931.6884765625,
        0.0,
        0.0,
        0.0,
        0.0,
        771.3493041992165,
        -5.823525360852112e-05,
        0.0,
        0.0,
        7.034052461236255e-05,
        931.6884765624973,
        0.0,
        -1426.7308349609375,
        363.71270751953125,
        72.33464813232422,
        1.0
      ],
      "name": "deadtreewide"
    },
    {
      "mesh": 2,
      "name": "deadtreewide_deadtreewide_0"
    },
    {
      "children": [
        10
      ],
      "matrix": [
        1631.6368408203125,
        0.0,
        0.0,
        0.0,
        0.0,
        2188.2675781249936,
        -0.00016520960955258837,
        0.0,
        0.0,
        0.00016520960955258837,
        2188.2675781249936,
        0.0,
        -1413.5682373046875,
        1029.48974609375,
        1994.7332763671875,
        1.0
      ],
      "name": "snowtree"
    },
    {
      "mesh": 3,
      "name": "snowtree_tree1_0"
    },
    {
      "children": [
        12
      ],
      "matrix": [
        30.802012413381018,
        -2.692797548752493e-06,
        80.62566355249245,
        -0.0,
        2.3005192626274655e-06,
        136.15458679199213,
        3.6685107650325562e-06,
        -0.0,
        120.43686499248851,
        -7.952291446921444e-07,
        -46.01137711086342,
        -0.0,
        -546.5119018554688,
        44.0419807434082,
        -289.78814697265625,
        1.0
      ],
      "name": "snowbush1"
    },
    {
      "mesh": 4,
      "name": "snowbush1_snowbush_0"
    },
    {
      "children": [
        14
      ],
      "matrix": [
        30.971028197243914,
        1.5334155480836479e-12,
        -2982.042787499896,
        0.0,
        -0.0002251406622311706,
        2982.2036132812414,
        -2.3382740363683212e-06,
        0.0,
        2982.0427874998873,
        0.00022515280436929762,
        30.971028197243914,
        0.0,
        -6510.40283203125,
        1459.4630126953125,
        6951.56640625,
        1.0
      ],
      "name": "treeline"
    },
    {
      "mesh": 5,
      "name": "treeline_treeline_0"
    },
    {
      "children": [
        16
      ],
      "matrix": [
        -30.971028197243584,
        1.5334156072873522e-12,
        -2982.042787499896,
        -0.0,
        0.000450276081295231,
        2982.2036132812154,
        -4.676495151524302e-06,
        -0.0,
        -2982.042787499862,
        0.00045030036530463934,
        30.97102819724292,
        -0.0,
        9002.61328125,
        1459.4630126953125,
        6951.56640625,
        1.0
      ],
      "name": "treeline.001"
    },
    {
      "mesh": 6,
      "name": "treeline.001_treeline_0"
    },
    {
      "children": [
        18
      ],
      "matrix": [
        54.776146265451565,
        -2.3290187893195085,
        144.71003469936528,
        -0.0,
        5.115583904916465,
        107.98267838039737,
        -0.1984540007855395,
        -0.0,
        215.91580583171492,
        -10.379331914457081,
        -81.89625166583008,
        -0.0,
        -796.9600830078125,
        28.436071395874023,
        -357.5545349121094,
        1.0
      ],
      "name": "snowbush2"
    },
    {
      "mesh": 7,
      "name": "snowbush2_snowbush_0"
    }
  ],
  "samplers": [
    {
      "magFilter": 9729,
      "minFilter": 9987,
      "wrapS": 10497,
      "wrapT": 10497
    }
  ],
  "scene": 0,
  "scenes": [
    {
      "name": "Sketchfab_Scene",
      "nodes": [
        0
      ]
    }
  ],
  "textures": [
    {
      "sampler": 0,
      "source": 0
    },
    {
      "sampler": 0,
      "source": 1
    },
    {
      "sampler": 0,
      "source": 2
    },
    {
      "sampler": 0,
      "source": 3
    },
    {
      "sampler": 0,
      "source": 4
    },
    {
      "sampler": 0,
      "source": 5
    }
  ]
}
