{
  "accessors": [
    {
      "bufferView": 2,
      "componentType": 5126,
      "count": 37707,
      "max": [
        0.6941739916801453,
        -0.15173399448394775,
        1.9404749870300293
      ],
      "min": [
        -0.48782798647880554,
        -1.2828819751739502,
        -0.09548400342464447
      ],
      "type": "VEC3"
    },
    {
      "bufferView": 2,
      "byteOffset": 452484,
      "componentType": 5126,
      "count": 37707,
      "max": [
        0.9999592304229736,
        0.999891996383667,
        0.9999474287033081
      ],
      "min": [
        -0.9999703168869019,
        -0.9999200105667114,
        -0.9998212456703186
      ],
      "type": "VEC3"
    },
    {
      "bufferView": 1,
      "componentType": 5126,
      "count": 37707,
      "max": [
        0.9940000176429749,
        0.5640000104904175
      ],
      "min": [
        0.0010000000474974513,
        0.004000000189989805
      ],
      "type": "VEC2"
    },
    {
      "bufferView": 0,
      "componentType": 5125,
      "count": 37725,
      "type": "SCALAR"
    },
    {
      "bufferView": 2,
      "byteOffset": 904968,
      "componentType": 5126,
      "count": 480,
      "max": [
        0.5946540236473083,
        -0.5227530002593994,
        1.7071410417556763
      ],
      "min": [
        0.5820299983024597,
        -0.560213029384613,
        1.6789729595184326
      ],
      "type": "VEC3"
    },
    {
      "bufferView": 2,
      "byteOffset": 910728,
      "componentType": 5126,
      "count": 480,
      "max": [
        0.9608722925186157,
        0.8894904851913452,
        0.7302368879318237
      ],
      "min": [
        -0.9581153392791748,
        -0.8893101811408997,
        -0.7302237749099731
      ],
      "type": "VEC3"
    },
    {
      "bufferView": 0,
      "byteOffset": 150900,
      "componentType": 5125,
      "count": 918,
      "type": "SCALAR"
    }
  ],
  "asset": {
    "extras": {
      "author": "Jerrad Lancaster (https://sketchfab.com/jlancaster)",
      "license": "CC-BY-4.0 (http://creativecommons.org/licenses/by/4.0/)",
      "source": "https://sketchfab.com/3d-models/christmas-deer-eda83fad94894127bed0d9b30a16d3d1",
      "title": "Christmas Deer"
    },
    "generator": "Sketchfab-12.68.0",
    "version": "2.0"
  },
  "bufferViews": [
    {
      "buffer": 0,
      "byteLength": 154572,
      "name": "floatBufferViews",
      "target": 34963
    },
    {
      "buffer": 0,
      "byteLength": 301656,
      "byteOffset": 154572,
      "byteStride": 8,
      "name": "floatBufferViews",
      "target": 34962
    },
    {
      "buffer": 0,
      "byteLength": 916488,
      "byteOffset": 456228,
      "byteStride": 12,
      "name": "floatBufferViews",
      "target": 34962
    }
  ],
  "buffers": [
    {
      "byteLength": 1372716,
      "uri": "scene.bin"
    }
  ],
  "extensionsUsed": [
    "KHR_materials_unlit"
  ],
  "images": [
    {
      "uri": "textures/material_baseColor.jpeg"
    }
  ],
  "materials": [
    {
      "doubleSided": true,
      "extensions": {
        "KHR_materials_unlit": {}
      },
      "name": "None",
      "pbrMetallicRoughness": {
        "baseColorFactor": [
          0.8,
          0.8,
          0.8,
          1.0
        ],
        "metallicFactor": 0.0
      }
    },
    {
      "doubleSided": true,
      "extensions": {
        "KHR_materials_unlit": {}
      },
      "name": "material",
      "pbrMetallicRoughness": {
        "baseColorTexture": {
          "index": 0
        },
        "metallicFactor": 0.0
      }
    }
  ],
  "meshes": [
    {
      "name": "Object_0",
      "primitives": [
        {
          "attributes": {
            "NORMAL": 1,
            "POSITION": 0,
            "TEXCOORD_0": 2
          },
          "indices": 3,
          "material": 1,
          "mode": 4
        }
      ]
    },
    {
      "name": "Object_1",
      "primitives": [
        {
          "attributes": {
            "NORMAL": 5,
            "POSITION": 4
          },
          "indices": 6,
          "material": 0,
          "mode": 4
        }
      ]
    }
  ],
  "nodes": [
    {
      "children": [
        1
      ],
      "matrix": [
        1.0,
        0.0,
        0.0,
        0.0,
        0.0,
        2.220446049250313e-16,
        -1.0,
        0.0,
        0.0,
        1.0,
        2.220446049250313e-16,
        0.0,
        0.0,
        0.0,
        0.0,
        1.0
      ],
      "name": "Sketchfab_model"
    },
    {
      "children": [
        2,
        3
      ],
      "name": "Xmas deer.obj.cleaner.materialmerger.gles"
    },
    {
      "mesh": 0,
      "name": "Object_2"
    },
    {
      "mesh": 1,
      "name": "Object_3"
    }
  ],
  "samplers": [
    {
      "magFilter": 9729,
      "minFilter": 9987,
      "wrapS": 10497,
      "wrapT": 10497
    }
  ],
  "scene": 0,
  "scenes": [
    {
      "name": "Sketchfab_Scene",
      "nodes": [
        0
      ]
    }
  ],
  "textures": [
    {
      "sampler": 0,
      "source": 0
    }
  ]
}
