{
  "accessors": [
    {
      "bufferView": 2,
      "componentType": 5126,
      "count": 15336,
      "max": [
        267.93670654296875,
        315.0766906738281,
        280.7879333496094
      ],
      "min": [
        72.82562255859375,
        121.33837890625,
        -14.44447135925293
      ],
      "type": "VEC3"
    },
    {
      "bufferView": 2,
      "byteOffset": 184032,
      "componentType": 5126,
      "count": 15336,
      "max": [
        0.9999085664749146,
        0.9978583455085754,
        0.9999737739562988
      ],
      "min": [
        -0.9999755620956421,
        -0.999896764755249,
        -0.9410203099250793
      ],
      "type": "VEC3"
    },
    {
      "bufferView": 1,
      "componentType": 5126,
      "count": 15336,
      "max": [
        1.0085999965667725,
        0.998199999332428
      ],
      "min": [
        0.0035000001080334187,
        0.017400000244379044
      ],
      "type": "VEC2"
    },
    {
      "bufferView": 0,
      "componentType": 5125,
      "count": 33624,
      "type": "SCALAR"
    },
    {
      "bufferView": 2,
      "byteOffset": 368064,
      "componentType": 5126,
      "count": 15336,
      "max": [
        479.1792907714844,
        387.46051025390625,
        282.1857604980469
      ],
      "min": [
        285.406494140625,
        193.07008361816406,
        -13.046653747558594
      ],
      "type": "VEC3"
    },
    {
      "bufferView": 2,
      "byteOffset": 552096,
      "componentType": 5126,
      "count": 15336,
      "max": [
        0.9999406337738037,
        0.999987006187439,
        0.999974250793457
      ],
      "min": [
        -0.9982280731201172,
        -0.9998335242271423,
        -0.9410442113876343
      ],
      "type": "VEC3"
    },
    {
      "bufferView": 1,
      "byteOffset": 122688,
      "componentType": 5126,
      "count": 15336,
      "max": [
        1.0085999965667725,
        0.998199999332428
      ],
      "min": [
        0.0035000001080334187,
        0.017400000244379044
      ],
      "type": "VEC2"
    },
    {
      "bufferView": 0,
      "byteOffset": 134496,
      "componentType": 5125,
      "count": 33624,
      "type": "SCALAR"
    }
  ],
  "asset": {
    "extras": {
      "author": "LadyIReyna (https://sketchfab.com/LadyIReyna)",
      "license": "CC-BY-NC-4.0 (http://creativecommons.org/licenses/by-nc/4.0/)",
      "source": "https://sketchfab.com/3d-models/the-fir-winter-and-summer-da0fe1f2d385483d9bf5626834056653",
      "title": "The fir - winter and summer"
    },
    "generator": "Sketchfab-12.65.0",
    "version": "2.0"
  },
  "bufferViews": [
    {
      "buffer": 0,
      "byteLength": 268992,
      "name": "floatBufferViews",
      "target": 34963
    },
    {
      "buffer": 0,
      "byteLength": 245376,
      "byteOffset": 268992,
      "byteStride": 8,
      "name": "floatBufferViews",
      "target": 34962
    },
    {
      "buffer": 0,
      "byteLength": 736128,
      "byteOffset": 514368,
      "byteStride": 12,
      "name": "floatBufferViews",
      "target": 34962
    }
  ],
  "buffers": [
    {
      "byteLength": 1250496,
      "uri": "scene.bin"
    }
  ],
  "images": [
    {
      "uri": "textures/Material__3_baseColor.png"
    },
    {
      "uri": "textures/Material__4_baseColor.png"
    }
  ],
  "materials": [
    {
      "alphaMode": "BLEND",
      "doubleSided": true,
      "name": "Material__3",
      "pbrMetallicRoughness": {
        "baseColorTexture": {
          "index": 0
        },
        "metallicFactor": 0.0,
        "roughnessFactor": 0.6
      }
    },
    {
      "alphaMode": "BLEND",
      "doubleSided": true,
      "name": "Material__4",
      "pbrMetallicRoughness": {
        "baseColorTexture": {
          "index": 1
        },
        "metallicFactor": 0.0,
        "roughnessFactor": 0.6
      }
    }
  ],
  "meshes": [
    {
      "name": "Object_0",
      "primitives": [
        {
          "attributes": {
            "NORMAL": 1,
            "POSITION": 0,
            "TEXCOORD_0": 2
          },
          "indices": 3,
          "material": 0,
          "mode": 4
        }
      ]
    },
    {
      "name": "Object_1",
      "primitives": [
        {
          "attributes": {
            "NORMAL": 5,
            "POSITION": 4,
            "TEXCOORD_0": 6
          },
          "indices": 7,
          "material": 1,
          "mode": 4
        }
      ]
    }
  ],
  "nodes": [
    {
      "children": [
        1
      ],
      "matrix": [
        1.0,
        0.0,
        0.0,
        0.0,
        0.0,
        2.220446049250313e-16,
        -1.0,
        0.0,
        0.0,
        1.0,
        2.220446049250313e-16,
        0.0,
        0.0,
        0.0,
        0.0,
        1.0
      ],
      "name": "Sketchfab_model"
    },
    {
      "children": [
        2,
        3
      ],
      "name": "DIETANNE.obj.cleaner.materialmerger.gles"
    },
    {
      "mesh": 0,
      "name": "Object_2"
    },
    {
      "mesh": 1,
      "name": "Object_3"
    }
  ],
  "samplers": [
    {
      "magFilter": 9729,
      "minFilter": 9987,
      "wrapS": 10497,
      "wrapT": 10497
    }
  ],
  "scene": 0,
  "scenes": [
    {
      "name": "Sketchfab_Scene",
      "nodes": [
        0
      ]
    }
  ],
  "textures": [
    {
      "sampler": 0,
      "source": 0
    },
    {
      "sampler": 0,
      "source": 1
    }
  ]
}
